<mxfile host="app.diagrams.net" modified="2024-04-13T20:24:41.835Z" agent="Mozilla/5.0 (Windows NT 10.0; Win64; x64) AppleWebKit/537.36 (KHTML, like Gecko) Chrome/123.0.0.0 Safari/537.36" version="24.2.3" etag="gNkWYNHlwUwGbJ2GJxfV" type="github">
  <diagram name="Page-1" id="HN6eyVRKAJeAwKZCNfHc">
    <mxGraphModel>
      <root>
        <mxCell id="0" />
        <mxCell id="1" parent="0" />
      </root>
    </mxGraphModel>
  </diagram>
</mxfile>
